<svg width="699" height="361" viewBox="0 0 699 361" fill="none" xmlns="http://www.w3.org/2000/svg">
<rect width="699" height="361" fill="#0066FF"/>
<path d="M59.0871 125.92C59.3431 125.952 59.6311 126.112 59.9511 126.4C60.2711 126.688 60.4311 127.216 60.4311 127.984C60.4311 128.72 60.2711 129.632 59.9511 130.72C59.6631 131.776 59.3751 132.576 59.0871 133.12L58.6551 133.984C58.3671 134.464 58.1591 134.704 58.0311 134.704H57.9351C57.6471 134.704 57.5031 134.592 57.5031 134.368C57.5031 132.192 57.1191 130.224 56.3511 128.464C56.0631 127.856 55.9191 127.52 55.9191 127.456C55.9191 126.976 56.1911 126.592 56.7351 126.304C57.3111 126.016 57.7911 125.872 58.1751 125.872C58.5591 125.84 58.8631 125.856 59.0871 125.92ZM52.6071 125.92C52.8631 125.952 53.1511 126.112 53.4711 126.4C53.7911 126.688 53.9511 127.216 53.9511 127.984C53.9511 128.72 53.8071 129.632 53.5191 130.72C53.2311 131.776 52.9271 132.576 52.6071 133.12L52.1751 133.984C51.8871 134.464 51.6791 134.704 51.5511 134.704H51.4551C51.1671 134.704 51.0231 134.592 51.0231 134.368C51.0231 132.32 50.6231 130.352 49.8231 128.464C49.5671 127.856 49.4391 127.52 49.4391 127.456C49.4391 126.976 49.7111 126.592 50.2551 126.304C50.8311 126.016 51.3111 125.872 51.6951 125.872C52.0791 125.84 52.3831 125.856 52.6071 125.92ZM72.5469 139.888C72.6749 139.888 72.9149 140.016 73.2669 140.272C73.6189 140.528 73.9869 140.656 74.3709 140.656H74.4189C75.5069 140.656 76.3709 140.224 77.0109 139.36C77.6509 138.496 78.0029 137.632 78.0669 136.768L78.2109 135.472C78.2109 134.256 78.0189 133.216 77.6349 132.352C77.2829 131.456 76.8669 130.8 76.3869 130.384C75.9069 129.936 75.3469 129.6 74.7069 129.376C73.9069 129.056 73.0589 128.896 72.1629 128.896C71.2989 128.896 70.5949 128.992 70.0509 129.184C69.5069 129.344 69.2029 129.504 69.1389 129.664L69.0909 129.952C68.8029 134.272 68.6589 138.144 68.6589 141.568C68.6589 144.96 68.7069 147.888 68.8029 150.352C68.9309 152.816 69.0429 154.72 69.1389 156.064C69.2669 157.376 69.3309 158.096 69.3309 158.224C69.3309 159.024 68.6269 159.664 67.2189 160.144C65.8109 160.624 64.4189 160.864 63.0429 160.864C62.4029 160.864 62.0829 160.704 62.0829 160.384C62.0829 160.288 62.1309 160.064 62.2269 159.712C62.8349 158.304 63.1389 151.76 63.1389 140.08C63.1389 133.2 62.6749 129.264 61.7469 128.272C61.5549 128.08 61.4589 127.888 61.4589 127.696C61.4589 127.472 61.6829 127.232 62.1309 126.976C62.6109 126.72 63.9229 126.432 66.0669 126.112C68.2109 125.76 70.4829 125.584 72.8829 125.584C76.6589 125.584 79.4909 126.608 81.3789 128.656C83.2989 130.704 84.2589 133.152 84.2589 136C84.2589 138.816 83.4749 141.264 81.9069 143.344C80.3709 145.424 78.3549 146.464 75.8589 146.464C75.0589 146.464 74.2589 146.32 73.4589 146.032C71.8589 145.456 71.0589 144.256 71.0589 142.432C71.0589 142.048 71.1869 141.536 71.4429 140.896C71.6989 140.224 72.0669 139.888 72.5469 139.888ZM100.057 147.136L100.249 148.816C100.249 149.424 99.6726 149.728 98.5206 149.728C96.1846 149.728 95.0166 148.848 95.0166 147.088C95.0166 146.672 95.1286 146.096 95.3526 145.36C95.5766 144.624 95.6886 143.984 95.6886 143.44C95.6886 142.896 95.5286 142.432 95.2086 142.048C94.8886 141.632 94.4246 141.424 93.8166 141.424C93.2086 141.424 92.6806 141.648 92.2326 142.096C91.8166 142.512 91.5606 142.944 91.4646 143.392L91.2726 144.064C91.0806 145.056 90.9846 146.72 90.9846 149.056C90.9846 151.36 91.0166 153.184 91.0806 154.528C91.1446 155.84 91.2086 156.752 91.2726 157.264C91.3366 157.744 91.3686 158.032 91.3686 158.128C91.3686 158.928 90.8726 159.568 89.8806 160.048C88.8886 160.56 87.8966 160.816 86.9046 160.816C85.9126 160.816 85.4166 160.608 85.4166 160.192L85.6566 158.704C86.1046 155.92 86.3286 152.288 86.3286 147.808C86.3286 143.328 86.1686 140.288 85.8486 138.688C85.8486 138.304 86.1846 138.112 86.8566 138.112C88.5846 138.112 89.7366 138.704 90.3126 139.888C90.3446 140.016 90.3926 140.08 90.4566 140.08C90.5526 140.08 90.7766 139.936 91.1286 139.648C92.1846 138.784 93.4326 138.352 94.8726 138.352C95.7686 138.352 96.6646 138.528 97.5606 138.88C99.3846 139.616 100.297 141.152 100.297 143.488L100.057 147.136ZM105.964 141.904C105.132 141.936 104.524 141.968 104.14 142C103.788 142 103.612 141.904 103.612 141.712C103.612 141.52 103.708 141.328 103.9 141.136C105.948 139.248 109.404 138.304 114.268 138.304C115.932 138.304 117.244 138.448 118.204 138.736L118.684 138.88C119.068 139.04 119.26 139.216 119.26 139.408C119.26 139.568 119.148 139.696 118.924 139.792C118.06 140.048 117.228 140.464 116.428 141.04C115.628 141.584 115.228 141.968 115.228 142.192L115.516 142.528C116.54 143.104 117.324 144.016 117.868 145.264C118.444 146.512 118.764 147.616 118.828 148.576L118.924 150.064C118.924 153.232 118.044 155.84 116.284 157.888C114.524 159.936 112.124 160.96 109.084 160.96C107.548 160.96 106.22 160.688 105.1 160.144C103.98 159.6 103.148 158.992 102.604 158.32C102.092 157.616 101.676 156.832 101.356 155.968C100.972 154.784 100.78 153.568 100.78 152.32C100.78 151.04 100.988 149.76 101.404 148.48C101.852 147.2 102.348 146.256 102.892 145.648C103.468 145.04 104.108 144.544 104.812 144.16C105.708 143.68 106.428 143.44 106.972 143.44C107.516 143.44 107.788 143.552 107.788 143.776L107.5 144.256C106.796 145.088 106.284 146.176 105.964 147.52C105.676 148.864 105.532 150.064 105.532 151.12C105.532 152.144 105.66 153.168 105.916 154.192C106.172 155.216 106.46 155.984 106.78 156.496C107.1 156.976 107.468 157.344 107.884 157.6C108.492 157.984 109.132 158.176 109.804 158.176C110.476 158.176 111.132 157.92 111.772 157.408C112.412 156.864 112.876 156.16 113.164 155.296C113.74 153.696 114.028 152.048 114.028 150.352C114.028 147.664 113.34 145.584 111.964 144.112C110.62 142.64 108.62 141.904 105.964 141.904ZM132.265 160.288C132.713 158.048 132.937 154.912 132.937 150.88C132.937 146.816 132.921 144.416 132.889 143.68C132.857 142.944 132.633 142.352 132.217 141.904C131.801 141.456 131.433 141.2 131.113 141.136C130.825 141.072 130.409 141.04 129.865 141.04C129.321 141.04 128.793 141.296 128.281 141.808C127.769 142.288 127.465 142.784 127.369 143.296L127.177 144.064C127.081 145.024 127.033 147.152 127.033 150.448C127.033 153.744 127.097 155.824 127.225 156.688C127.385 157.52 127.465 158.08 127.465 158.368C127.465 158.656 127.337 158.944 127.081 159.232C125.993 160.384 124.457 160.96 122.473 160.96C121.769 160.96 121.417 160.752 121.417 160.336C122.057 156.496 122.377 151.6 122.377 145.648C122.377 143.44 122.329 141.952 122.233 141.184L122.041 139.648C122.009 139.296 121.945 138.912 121.849 138.496C121.849 138.112 122.345 137.92 123.337 137.92C124.809 137.92 125.785 138.464 126.265 139.552C126.297 139.68 126.361 139.744 126.457 139.744C126.553 139.744 126.777 139.616 127.129 139.36C128.185 138.528 129.609 138.112 131.401 138.112C132.425 138.112 133.433 138.304 134.425 138.688C135.417 139.072 136.105 139.584 136.489 140.224C136.521 140.288 136.569 140.32 136.633 140.32C136.697 140.32 136.793 140.256 136.921 140.128C138.265 138.784 140.009 138.112 142.153 138.112C145.001 138.112 146.953 139.136 148.009 141.184C148.393 141.984 148.585 142.992 148.585 144.208C148.585 145.424 148.489 147.152 148.297 149.392C148.105 151.632 148.009 153.344 148.009 154.528C148.009 155.712 148.121 156.784 148.345 157.744C148.601 158.704 148.841 159.392 149.065 159.808C149.321 160.224 149.449 160.464 149.449 160.528C149.449 160.944 149.001 161.152 148.105 161.152C145.897 161.152 144.361 160.704 143.497 159.808C142.633 158.912 142.201 157.744 142.201 156.304C142.201 154.832 142.489 152.864 143.065 150.4C143.673 147.904 143.977 146.032 143.977 144.784C143.977 142.256 142.953 140.992 140.905 140.992C140.041 140.992 139.353 141.248 138.841 141.76C138.329 142.272 138.025 142.784 137.929 143.296L137.833 144.064C137.705 145.536 137.641 147.312 137.641 149.392C137.641 151.472 137.673 153.104 137.737 154.288C137.801 155.44 137.865 156.352 137.929 157.024C137.993 157.664 138.025 158.048 138.025 158.176C138.025 159.072 137.465 159.76 136.345 160.24C135.225 160.72 134.137 160.96 133.081 160.96C132.537 160.96 132.265 160.736 132.265 160.288ZM155.746 141.904C154.914 141.936 154.306 141.968 153.922 142C153.57 142 153.394 141.904 153.394 141.712C153.394 141.52 153.49 141.328 153.682 141.136C155.73 139.248 159.186 138.304 164.05 138.304C165.714 138.304 167.026 138.448 167.986 138.736L168.466 138.88C168.85 139.04 169.042 139.216 169.042 139.408C169.042 139.568 168.93 139.696 168.706 139.792C167.842 140.048 167.01 140.464 166.21 141.04C165.41 141.584 165.01 141.968 165.01 142.192L165.298 142.528C166.322 143.104 167.106 144.016 167.65 145.264C168.226 146.512 168.546 147.616 168.61 148.576L168.706 150.064C168.706 153.232 167.826 155.84 166.066 157.888C164.306 159.936 161.906 160.96 158.866 160.96C157.33 160.96 156.002 160.688 154.882 160.144C153.762 159.6 152.93 158.992 152.386 158.32C151.874 157.616 151.458 156.832 151.138 155.968C150.754 154.784 150.562 153.568 150.562 152.32C150.562 151.04 150.77 149.76 151.186 148.48C151.634 147.2 152.13 146.256 152.674 145.648C153.25 145.04 153.89 144.544 154.594 144.16C155.49 143.68 156.21 143.44 156.754 143.44C157.298 143.44 157.57 143.552 157.57 143.776L157.282 144.256C156.578 145.088 156.066 146.176 155.746 147.52C155.458 148.864 155.314 150.064 155.314 151.12C155.314 152.144 155.442 153.168 155.698 154.192C155.954 155.216 156.242 155.984 156.562 156.496C156.882 156.976 157.25 157.344 157.666 157.6C158.274 157.984 158.914 158.176 159.586 158.176C160.258 158.176 160.914 157.92 161.554 157.408C162.194 156.864 162.658 156.16 162.946 155.296C163.522 153.696 163.81 152.048 163.81 150.352C163.81 147.664 163.122 145.584 161.746 144.112C160.402 142.64 158.402 141.904 155.746 141.904ZM195.855 141.808C195.503 141.904 195.327 142.016 195.327 142.144C195.327 142.24 195.711 142.432 196.479 142.72C197.247 143.008 197.967 143.456 198.639 144.064C199.343 144.672 199.839 145.408 200.127 146.272C200.575 147.584 200.799 148.992 200.799 150.496C200.799 152 200.911 153.248 201.135 154.24C201.359 155.2 201.631 155.936 201.951 156.448C202.591 157.536 203.183 158.208 203.727 158.464L204.063 158.656C204.255 158.784 204.351 158.944 204.351 159.136C204.351 159.616 203.567 160.032 201.999 160.384C200.431 160.768 199.215 160.96 198.351 160.96C196.655 160.96 195.567 160.288 195.087 158.944C194.639 157.568 194.415 155.232 194.415 151.936V149.296C194.415 146.512 193.583 144.736 191.919 143.968C191.279 143.68 190.511 143.536 189.615 143.536H189.567C189.279 143.536 189.135 143.264 189.135 142.72C189.135 142.144 189.295 141.568 189.615 140.992C189.967 140.416 190.271 140.128 190.527 140.128C191.583 140.128 192.495 139.936 193.263 139.552C194.031 139.136 194.591 138.64 194.943 138.064C195.679 136.848 196.079 135.808 196.143 134.944V134.32C196.143 133.136 195.951 132.144 195.567 131.344C195.183 130.512 194.703 129.936 194.127 129.616C193.167 129.104 192.191 128.848 191.199 128.848C190.207 128.848 189.391 128.928 188.751 129.088C187.855 129.344 187.407 129.616 187.407 129.904C187.119 134.096 186.975 138.144 186.975 142.048C186.975 145.92 187.023 148.896 187.119 150.976C187.247 153.024 187.359 154.688 187.455 155.968C187.583 157.216 187.647 157.952 187.647 158.176C187.647 158.592 187.535 158.88 187.311 159.04C185.999 160.256 183.935 160.864 181.119 160.864C180.639 160.864 180.399 160.704 180.399 160.384C180.399 160.288 180.447 160.064 180.543 159.712C180.863 158.976 181.087 156.64 181.215 152.704C181.375 148.768 181.455 145.184 181.455 141.952C181.455 138.688 181.391 136.048 181.263 134.032C181.071 130.992 180.751 129.168 180.303 128.56C179.951 128.112 179.775 127.808 179.775 127.648C179.775 127.456 179.951 127.264 180.303 127.072C182.351 126.112 186.063 125.632 191.439 125.632C195.759 125.632 198.991 126.848 201.135 129.28C202.287 130.624 202.863 132.304 202.863 134.32C202.863 135.536 202.623 136.624 202.143 137.584C201.663 138.544 201.071 139.28 200.367 139.792C199.023 140.816 197.759 141.44 196.575 141.664L195.855 141.808ZM221.214 145.6L221.118 151.744C221.118 156 221.582 158.56 222.51 159.424C222.638 159.552 222.702 159.696 222.702 159.856C222.702 160.336 221.662 160.576 219.582 160.576C217.534 160.576 216.446 159.968 216.318 158.752C216.286 158.464 216.27 157.872 216.27 156.976L216.462 149.296C216.462 149.072 216.334 148.96 216.078 148.96C214.542 148.96 213.102 149.392 211.758 150.256C210.414 151.12 209.742 152.224 209.742 153.568C209.742 154.272 209.934 154.864 210.318 155.344C210.702 155.824 211.166 156.064 211.71 156.064C212.286 156.064 212.75 155.952 213.102 155.728C213.486 155.504 213.71 155.376 213.774 155.344C214.318 155.408 214.59 155.984 214.59 157.072C214.59 158.128 214.094 158.992 213.102 159.664C212.11 160.304 211.07 160.624 209.982 160.624C208.894 160.624 207.95 160.432 207.15 160.048C206.382 159.664 205.822 159.232 205.47 158.752C205.118 158.272 204.83 157.728 204.606 157.12C204.382 156.384 204.27 155.744 204.27 155.2C204.27 152.96 204.974 151.168 206.382 149.824C207.79 148.48 209.598 147.52 211.806 146.944C214.718 146.368 216.238 145.84 216.366 145.36C216.462 145.008 216.51 144.416 216.51 143.584C216.51 141.888 215.646 141.04 213.918 141.04C213.182 141.04 212.526 141.28 211.95 141.76C211.374 142.208 211.086 142.784 211.086 143.488L211.374 144.64C211.31 145.184 210.734 145.504 209.646 145.6L209.118 145.648C208.158 145.648 207.39 145.408 206.814 144.928C206.27 144.448 205.998 143.808 205.998 143.008C205.998 142.496 206.158 141.936 206.478 141.328C206.83 140.688 207.262 140.176 207.774 139.792C208.286 139.408 209.07 139.072 210.126 138.784C211.214 138.464 212.254 138.304 213.246 138.304C214.238 138.304 215.006 138.336 215.55 138.4C216.094 138.464 216.83 138.624 217.758 138.88C218.718 139.104 219.502 139.552 220.11 140.224C220.75 140.896 221.086 141.616 221.118 142.384C221.182 143.12 221.214 144.192 221.214 145.6ZM234.968 160.288C235.416 158.048 235.64 154.912 235.64 150.88C235.64 146.816 235.624 144.416 235.592 143.68C235.56 142.944 235.336 142.352 234.92 141.904C234.504 141.456 234.136 141.2 233.816 141.136C233.528 141.072 233.112 141.04 232.568 141.04C232.024 141.04 231.496 141.296 230.984 141.808C230.472 142.288 230.168 142.784 230.072 143.296L229.88 144.064C229.784 145.024 229.736 147.152 229.736 150.448C229.736 153.744 229.8 155.824 229.928 156.688C230.088 157.52 230.168 158.08 230.168 158.368C230.168 158.656 230.04 158.944 229.784 159.232C228.696 160.384 227.16 160.96 225.176 160.96C224.472 160.96 224.12 160.752 224.12 160.336C224.76 156.496 225.08 151.6 225.08 145.648C225.08 143.44 225.032 141.952 224.936 141.184L224.744 139.648C224.712 139.296 224.648 138.912 224.552 138.496C224.552 138.112 225.048 137.92 226.04 137.92C227.512 137.92 228.488 138.464 228.968 139.552C229 139.68 229.064 139.744 229.16 139.744C229.256 139.744 229.48 139.616 229.832 139.36C230.888 138.528 232.312 138.112 234.104 138.112C235.128 138.112 236.136 138.304 237.128 138.688C238.12 139.072 238.808 139.584 239.192 140.224C239.224 140.288 239.272 140.32 239.336 140.32C239.4 140.32 239.496 140.256 239.624 140.128C240.968 138.784 242.712 138.112 244.856 138.112C247.704 138.112 249.656 139.136 250.712 141.184C251.096 141.984 251.288 142.992 251.288 144.208C251.288 145.424 251.192 147.152 251 149.392C250.808 151.632 250.712 153.344 250.712 154.528C250.712 155.712 250.824 156.784 251.048 157.744C251.304 158.704 251.544 159.392 251.768 159.808C252.024 160.224 252.152 160.464 252.152 160.528C252.152 160.944 251.704 161.152 250.808 161.152C248.6 161.152 247.064 160.704 246.2 159.808C245.336 158.912 244.904 157.744 244.904 156.304C244.904 154.832 245.192 152.864 245.768 150.4C246.376 147.904 246.68 146.032 246.68 144.784C246.68 142.256 245.656 140.992 243.608 140.992C242.744 140.992 242.056 141.248 241.544 141.76C241.032 142.272 240.728 142.784 240.632 143.296L240.536 144.064C240.408 145.536 240.344 147.312 240.344 149.392C240.344 151.472 240.376 153.104 240.44 154.288C240.504 155.44 240.568 156.352 240.632 157.024C240.696 157.664 240.728 158.048 240.728 158.176C240.728 159.072 240.168 159.76 239.048 160.24C237.928 160.72 236.84 160.96 235.784 160.96C235.24 160.96 234.968 160.736 234.968 160.288ZM269.777 145.6L269.681 151.744C269.681 156 270.145 158.56 271.073 159.424C271.201 159.552 271.265 159.696 271.265 159.856C271.265 160.336 270.225 160.576 268.145 160.576C266.097 160.576 265.009 159.968 264.881 158.752C264.849 158.464 264.833 157.872 264.833 156.976L265.025 149.296C265.025 149.072 264.897 148.96 264.641 148.96C263.105 148.96 261.665 149.392 260.321 150.256C258.977 151.12 258.305 152.224 258.305 153.568C258.305 154.272 258.497 154.864 258.881 155.344C259.265 155.824 259.729 156.064 260.273 156.064C260.849 156.064 261.313 155.952 261.665 155.728C262.049 155.504 262.273 155.376 262.337 155.344C262.881 155.408 263.153 155.984 263.153 157.072C263.153 158.128 262.657 158.992 261.665 159.664C260.673 160.304 259.633 160.624 258.545 160.624C257.457 160.624 256.513 160.432 255.713 160.048C254.945 159.664 254.385 159.232 254.033 158.752C253.681 158.272 253.393 157.728 253.169 157.12C252.945 156.384 252.833 155.744 252.833 155.2C252.833 152.96 253.537 151.168 254.945 149.824C256.353 148.48 258.161 147.52 260.369 146.944C263.281 146.368 264.801 145.84 264.929 145.36C265.025 145.008 265.073 144.416 265.073 143.584C265.073 141.888 264.209 141.04 262.481 141.04C261.745 141.04 261.089 141.28 260.513 141.76C259.937 142.208 259.649 142.784 259.649 143.488L259.937 144.64C259.873 145.184 259.297 145.504 258.209 145.6L257.681 145.648C256.721 145.648 255.953 145.408 255.377 144.928C254.833 144.448 254.561 143.808 254.561 143.008C254.561 142.496 254.721 141.936 255.041 141.328C255.393 140.688 255.825 140.176 256.337 139.792C256.849 139.408 257.633 139.072 258.689 138.784C259.777 138.464 260.817 138.304 261.809 138.304C262.801 138.304 263.569 138.336 264.113 138.4C264.657 138.464 265.393 138.624 266.321 138.88C267.281 139.104 268.065 139.552 268.673 140.224C269.313 140.896 269.649 141.616 269.681 142.384C269.745 143.12 269.777 144.192 269.777 145.6ZM282.282 138.448C282.858 138.448 283.37 138.528 283.818 138.688C284.298 138.816 284.554 138.88 284.586 138.88L284.874 138.64L284.682 133.408C284.618 132.512 284.426 131.744 284.106 131.104C283.786 130.464 283.498 130.048 283.242 129.856L282.81 129.616C282.618 129.488 282.522 129.344 282.522 129.184C282.522 128.704 283.258 128.144 284.73 127.504C286.234 126.864 287.402 126.544 288.234 126.544C289.066 126.544 289.514 126.72 289.578 127.072C289.738 128.16 289.818 130.24 289.818 133.312C289.818 136.352 289.738 139.344 289.578 142.288C289.45 145.232 289.386 148.576 289.386 152.32C289.386 156.032 289.626 158.368 290.106 159.328C290.234 159.552 290.298 159.76 290.298 159.952C290.298 160.432 289.61 160.672 288.234 160.672C285.61 160.672 284.298 160.048 284.298 158.8C284.234 158.288 284.202 157.504 284.202 156.448C284.202 155.36 284.298 153.36 284.49 150.448C284.714 147.504 284.826 145.248 284.826 143.68C284.826 142.08 284.026 141.28 282.426 141.28C280.858 141.28 279.658 142.208 278.826 144.064C277.994 145.92 277.578 147.776 277.578 149.632C277.578 153.568 278.57 155.536 280.554 155.536C280.842 155.536 281.114 155.488 281.37 155.392C281.658 155.264 281.834 155.2 281.898 155.2C282.154 155.2 282.346 155.36 282.474 155.68C282.634 156 282.714 156.32 282.714 156.64C282.714 157.728 282.282 158.656 281.418 159.424C280.554 160.16 279.498 160.528 278.25 160.528C276.33 160.528 274.874 159.696 273.882 158.032C272.922 156.336 272.442 154.24 272.442 151.744C272.442 148.576 273.194 145.632 274.698 142.912C275.466 141.568 276.506 140.496 277.818 139.696C279.13 138.864 280.618 138.448 282.282 138.448ZM298.655 134.224L298.607 138.88C298.607 139.072 298.671 139.168 298.799 139.168C298.927 139.168 299.055 139.12 299.183 139.024C299.983 138.48 301.247 138.208 302.975 138.208C305.887 138.208 307.903 139.2 309.023 141.184C309.439 141.92 309.647 142.896 309.647 144.112C309.647 145.328 309.567 147.008 309.407 149.152C309.279 151.296 309.215 152.816 309.215 153.712C309.215 156.848 309.663 158.928 310.559 159.952C310.719 160.112 310.799 160.272 310.799 160.432C310.799 160.752 310.111 160.912 308.735 160.912C305.023 160.912 303.167 159.184 303.167 155.728C303.167 154.384 303.487 152.496 304.127 150.064C304.767 147.632 305.087 145.84 305.087 144.688C305.087 143.536 304.815 142.656 304.271 142.048C303.727 141.408 302.975 141.088 302.015 141.088C301.055 141.088 300.287 141.296 299.711 141.712C299.167 142.128 298.831 142.56 298.703 143.008L298.559 143.632C298.527 144.24 298.511 146.176 298.511 149.44C298.511 152.704 298.591 154.832 298.751 155.824C298.911 156.784 298.991 157.328 298.991 157.456C298.991 158.384 298.367 159.216 297.119 159.952C295.871 160.656 294.639 161.008 293.423 161.008C292.975 161.008 292.751 160.752 292.751 160.24L292.847 159.328C293.551 153.952 293.903 148.128 293.903 141.856C293.903 139.424 293.807 136.96 293.615 134.464L293.567 133.408C293.503 132.512 293.311 131.744 292.991 131.104C292.703 130.464 292.431 130.048 292.175 129.856L291.743 129.616C291.519 129.488 291.407 129.344 291.407 129.184C291.407 128.736 292.159 128.192 293.663 127.552C295.167 126.88 296.319 126.544 297.119 126.544C297.951 126.544 298.399 126.72 298.463 127.072C298.591 128.704 298.655 131.088 298.655 134.224ZM328.277 145.6L328.181 151.744C328.181 156 328.645 158.56 329.573 159.424C329.701 159.552 329.765 159.696 329.765 159.856C329.765 160.336 328.725 160.576 326.645 160.576C324.597 160.576 323.509 159.968 323.381 158.752C323.349 158.464 323.333 157.872 323.333 156.976L323.525 149.296C323.525 149.072 323.397 148.96 323.141 148.96C321.605 148.96 320.165 149.392 318.821 150.256C317.477 151.12 316.805 152.224 316.805 153.568C316.805 154.272 316.997 154.864 317.381 155.344C317.765 155.824 318.229 156.064 318.773 156.064C319.349 156.064 319.813 155.952 320.165 155.728C320.549 155.504 320.773 155.376 320.837 155.344C321.381 155.408 321.653 155.984 321.653 157.072C321.653 158.128 321.157 158.992 320.165 159.664C319.173 160.304 318.133 160.624 317.045 160.624C315.957 160.624 315.013 160.432 314.213 160.048C313.445 159.664 312.885 159.232 312.533 158.752C312.181 158.272 311.893 157.728 311.669 157.12C311.445 156.384 311.333 155.744 311.333 155.2C311.333 152.96 312.037 151.168 313.445 149.824C314.853 148.48 316.661 147.52 318.869 146.944C321.781 146.368 323.301 145.84 323.429 145.36C323.525 145.008 323.573 144.416 323.573 143.584C323.573 141.888 322.709 141.04 320.981 141.04C320.245 141.04 319.589 141.28 319.013 141.76C318.437 142.208 318.149 142.784 318.149 143.488L318.437 144.64C318.373 145.184 317.797 145.504 316.709 145.6L316.181 145.648C315.221 145.648 314.453 145.408 313.877 144.928C313.333 144.448 313.061 143.808 313.061 143.008C313.061 142.496 313.221 141.936 313.541 141.328C313.893 140.688 314.325 140.176 314.837 139.792C315.349 139.408 316.133 139.072 317.189 138.784C318.277 138.464 319.317 138.304 320.309 138.304C321.301 138.304 322.069 138.336 322.613 138.4C323.157 138.464 323.893 138.624 324.821 138.88C325.781 139.104 326.565 139.552 327.173 140.224C327.813 140.896 328.149 141.616 328.181 142.384C328.245 143.12 328.277 144.192 328.277 145.6ZM331.182 160.336C331.758 156.88 332.046 152.736 332.046 147.904C332.046 143.072 331.902 139.936 331.614 138.496C331.614 138.08 332.094 137.872 333.054 137.872C334.526 137.872 335.502 138.432 335.982 139.552C336.014 139.648 336.094 139.696 336.222 139.696C336.35 139.696 336.446 139.664 336.51 139.6C337.502 138.576 339.038 138.064 341.118 138.064C343.198 138.064 344.846 138.592 346.062 139.648C347.278 140.704 347.886 142.24 347.886 144.256C347.886 145.472 347.774 147.2 347.55 149.44C347.358 151.68 347.262 153.344 347.262 154.432C347.262 157.024 347.694 158.896 348.558 160.048C348.686 160.208 348.75 160.368 348.75 160.528C348.75 160.944 348.302 161.152 347.406 161.152C343.438 161.152 341.454 159.392 341.454 155.872C341.454 154.528 341.758 152.656 342.366 150.256C342.974 147.856 343.278 146.032 343.278 144.784C343.278 142.224 342.222 140.944 340.11 140.944C339.086 140.944 338.302 141.248 337.758 141.856C337.246 142.464 336.958 143.168 336.894 143.968C336.83 144.736 336.798 146.208 336.798 148.384C336.798 151.712 336.91 154.608 337.134 157.072L337.23 158.128C337.23 159.024 336.638 159.712 335.454 160.192C334.302 160.704 333.294 160.96 332.43 160.96C331.598 160.96 331.182 160.752 331.182 160.336ZM379.715 149.008C380.323 149.008 380.627 149.776 380.627 151.312C380.627 152.848 380.339 154.224 379.763 155.44C379.187 156.656 378.483 157.6 377.651 158.272C376.851 158.944 375.939 159.488 374.915 159.904C371.491 161.408 368.291 161.376 365.315 159.808C363.811 159.008 362.659 158.064 361.859 156.976C361.059 155.856 360.419 154.528 359.939 152.992C359.203 150.688 358.835 148.272 358.835 145.744C358.835 143.216 359.075 140.848 359.555 138.64C360.035 136.432 360.771 134.336 361.763 132.352C362.755 130.336 364.163 128.72 365.987 127.504C367.811 126.288 369.923 125.68 372.323 125.68C373.347 125.68 374.403 125.856 375.491 126.208C376.611 126.528 377.523 126.944 378.227 127.456C378.931 127.936 379.555 128.688 380.099 129.712C380.643 130.736 380.915 131.936 380.915 133.312C380.915 134.784 380.563 136.112 379.859 137.296C379.539 137.84 379.027 138.336 378.323 138.784C377.619 139.2 376.787 139.408 375.827 139.408C374.355 139.408 373.315 138.752 372.707 137.44C372.451 136.928 372.323 136.368 372.323 135.76C372.323 135.152 372.531 134.8 372.947 134.704C373.395 134.576 373.811 134.224 374.195 133.648C374.579 133.072 374.771 132.4 374.771 131.632C374.771 131.024 374.611 130.496 374.291 130.048C373.683 129.248 372.803 128.848 371.651 128.848C370.499 128.848 369.443 129.376 368.483 130.432C367.555 131.488 366.851 132.816 366.371 134.416C365.411 137.616 364.931 140.56 364.931 143.248C364.931 145.936 365.299 148.096 366.035 149.728C366.931 151.744 368.067 153.088 369.443 153.76C370.307 154.176 371.299 154.384 372.419 154.384C374.307 154.384 376.003 153.536 377.507 151.84C378.147 151.168 378.675 150.368 379.091 149.44C379.251 149.152 379.459 149.008 379.715 149.008ZM399.292 145.6L399.196 151.744C399.196 156 399.66 158.56 400.588 159.424C400.716 159.552 400.78 159.696 400.78 159.856C400.78 160.336 399.74 160.576 397.66 160.576C395.612 160.576 394.524 159.968 394.396 158.752C394.364 158.464 394.348 157.872 394.348 156.976L394.54 149.296C394.54 149.072 394.412 148.96 394.156 148.96C392.62 148.96 391.18 149.392 389.836 150.256C388.492 151.12 387.82 152.224 387.82 153.568C387.82 154.272 388.012 154.864 388.396 155.344C388.78 155.824 389.244 156.064 389.788 156.064C390.364 156.064 390.828 155.952 391.18 155.728C391.564 155.504 391.788 155.376 391.852 155.344C392.396 155.408 392.668 155.984 392.668 157.072C392.668 158.128 392.172 158.992 391.18 159.664C390.188 160.304 389.148 160.624 388.06 160.624C386.972 160.624 386.028 160.432 385.228 160.048C384.46 159.664 383.9 159.232 383.548 158.752C383.196 158.272 382.908 157.728 382.684 157.12C382.46 156.384 382.348 155.744 382.348 155.2C382.348 152.96 383.052 151.168 384.46 149.824C385.868 148.48 387.676 147.52 389.884 146.944C392.796 146.368 394.316 145.84 394.444 145.36C394.54 145.008 394.588 144.416 394.588 143.584C394.588 141.888 393.724 141.04 391.996 141.04C391.26 141.04 390.604 141.28 390.028 141.76C389.452 142.208 389.164 142.784 389.164 143.488L389.452 144.64C389.388 145.184 388.812 145.504 387.724 145.6L387.196 145.648C386.236 145.648 385.468 145.408 384.892 144.928C384.348 144.448 384.076 143.808 384.076 143.008C384.076 142.496 384.236 141.936 384.556 141.328C384.908 140.688 385.34 140.176 385.852 139.792C386.364 139.408 387.148 139.072 388.204 138.784C389.292 138.464 390.332 138.304 391.324 138.304C392.316 138.304 393.084 138.336 393.628 138.4C394.172 138.464 394.908 138.624 395.836 138.88C396.796 139.104 397.58 139.552 398.188 140.224C398.828 140.896 399.164 141.616 399.196 142.384C399.26 143.12 399.292 144.192 399.292 145.6ZM416.79 153.424C416.79 154.8 416.518 156 415.974 157.024C415.462 158.048 414.87 158.8 414.198 159.28C413.526 159.76 412.726 160.144 411.798 160.432C410.582 160.816 409.478 161.008 408.486 161.008C406.406 161.008 404.678 160.608 403.302 159.808C401.926 158.976 401.238 157.664 401.238 155.872C401.238 154.816 401.526 153.952 402.102 153.28C402.998 152.288 404.07 151.792 405.318 151.792C405.702 151.792 405.894 151.968 405.894 152.32C405.894 152.352 405.814 152.608 405.654 153.088C405.526 153.536 405.462 154.112 405.462 154.816C405.462 155.52 405.734 156.144 406.278 156.688C406.854 157.232 407.542 157.504 408.342 157.504C409.142 157.504 409.782 157.376 410.262 157.12C410.742 156.832 411.078 156.48 411.27 156.064C411.558 155.488 411.702 154.944 411.702 154.432C411.702 153.504 411.238 152.704 410.31 152.032C409.382 151.36 408.358 150.832 407.238 150.448C406.118 150.064 405.094 149.424 404.166 148.528C403.238 147.632 402.774 146.512 402.774 145.168C402.774 142.864 403.494 141.136 404.934 139.984C406.406 138.832 408.39 138.256 410.886 138.256C411.974 138.256 413.11 138.416 414.294 138.736C415.51 139.024 416.118 139.536 416.118 140.272C416.118 140.976 415.99 141.632 415.734 142.24C415.51 142.848 415.222 143.152 414.87 143.152C414.678 143.152 414.55 143.088 414.486 142.96C414.422 142.8 414.31 142.624 414.15 142.432C413.99 142.24 413.606 142 412.998 141.712C412.39 141.392 411.862 141.232 411.414 141.232C410.998 141.232 410.71 141.248 410.55 141.28C410.422 141.28 410.182 141.328 409.83 141.424C409.478 141.488 409.158 141.6 408.87 141.76C408.134 142.176 407.766 142.784 407.766 143.584C407.766 144.096 407.878 144.48 408.102 144.736C408.326 144.96 408.502 145.136 408.63 145.264C408.758 145.392 408.982 145.552 409.302 145.744C409.622 145.904 409.846 146.016 409.974 146.08C410.102 146.144 410.39 146.288 410.838 146.512C411.286 146.704 411.574 146.832 411.702 146.896C415.094 148.496 416.79 150.672 416.79 153.424ZM424.89 134.224L424.842 138.88C424.842 139.072 424.906 139.168 425.034 139.168C425.162 139.168 425.29 139.12 425.418 139.024C426.218 138.48 427.482 138.208 429.21 138.208C432.122 138.208 434.138 139.2 435.258 141.184C435.674 141.92 435.882 142.896 435.882 144.112C435.882 145.328 435.802 147.008 435.642 149.152C435.514 151.296 435.45 152.816 435.45 153.712C435.45 156.848 435.898 158.928 436.794 159.952C436.954 160.112 437.034 160.272 437.034 160.432C437.034 160.752 436.346 160.912 434.97 160.912C431.258 160.912 429.402 159.184 429.402 155.728C429.402 154.384 429.722 152.496 430.362 150.064C431.002 147.632 431.322 145.84 431.322 144.688C431.322 143.536 431.05 142.656 430.506 142.048C429.962 141.408 429.21 141.088 428.25 141.088C427.29 141.088 426.522 141.296 425.946 141.712C425.402 142.128 425.066 142.56 424.938 143.008L424.794 143.632C424.762 144.24 424.746 146.176 424.746 149.44C424.746 152.704 424.826 154.832 424.986 155.824C425.146 156.784 425.226 157.328 425.226 157.456C425.226 158.384 424.602 159.216 423.354 159.952C422.106 160.656 420.874 161.008 419.658 161.008C419.21 161.008 418.986 160.752 418.986 160.24L419.082 159.328C419.786 153.952 420.138 148.128 420.138 141.856C420.138 139.424 420.042 136.96 419.85 134.464L419.802 133.408C419.738 132.512 419.546 131.744 419.226 131.104C418.938 130.464 418.666 130.048 418.41 129.856L417.978 129.616C417.754 129.488 417.642 129.344 417.642 129.184C417.642 128.736 418.394 128.192 419.898 127.552C421.402 126.88 422.554 126.544 423.354 126.544C424.186 126.544 424.634 126.72 424.698 127.072C424.826 128.704 424.89 131.088 424.89 134.224ZM448.175 143.44L447.071 143.728C446.495 143.728 446.207 143.2 446.207 142.144C446.207 141.056 446.591 140.192 447.359 139.552C448.159 138.88 449.167 138.544 450.383 138.544C451.055 138.544 451.775 138.752 452.543 139.168C453.311 139.552 453.951 140.048 454.463 140.656C454.975 141.232 455.423 142.16 455.807 143.44C456.223 144.688 456.431 146.16 456.431 147.856C456.431 151.76 455.375 154.928 453.263 157.36C451.183 159.792 448.159 161.008 444.191 161.008C443.039 161.008 441.903 160.896 440.783 160.672L440.303 160.576C439.887 160.448 439.647 160.224 439.583 159.904C439.487 159.232 439.439 157.648 439.439 155.152L439.727 139.6C439.727 137.2 439.663 135.36 439.535 134.08L439.439 133.408C439.375 132.512 439.183 131.744 438.863 131.104C438.575 130.464 438.287 130.048 437.999 129.856L437.615 129.616C437.391 129.488 437.279 129.344 437.279 129.184C437.279 128.704 438.079 128.144 439.679 127.504C441.279 126.832 442.447 126.496 443.183 126.496C443.919 126.496 444.303 126.688 444.335 127.072C444.559 129.024 444.671 131.808 444.671 135.424L444.431 146.944C444.431 151.968 444.575 155.44 444.863 157.36C444.895 157.808 445.391 158.032 446.351 158.032C447.343 158.032 448.191 157.76 448.895 157.216C449.599 156.672 450.127 155.952 450.479 155.056C451.119 153.424 451.439 151.616 451.439 149.632C451.439 148.704 451.311 147.696 451.055 146.608C450.607 144.496 449.647 143.44 448.175 143.44ZM474.62 145.6L474.524 151.744C474.524 156 474.988 158.56 475.916 159.424C476.044 159.552 476.108 159.696 476.108 159.856C476.108 160.336 475.068 160.576 472.988 160.576C470.94 160.576 469.852 159.968 469.724 158.752C469.692 158.464 469.676 157.872 469.676 156.976L469.868 149.296C469.868 149.072 469.74 148.96 469.484 148.96C467.948 148.96 466.508 149.392 465.164 150.256C463.82 151.12 463.148 152.224 463.148 153.568C463.148 154.272 463.34 154.864 463.724 155.344C464.108 155.824 464.572 156.064 465.116 156.064C465.692 156.064 466.156 155.952 466.508 155.728C466.892 155.504 467.116 155.376 467.18 155.344C467.724 155.408 467.996 155.984 467.996 157.072C467.996 158.128 467.5 158.992 466.508 159.664C465.516 160.304 464.476 160.624 463.388 160.624C462.3 160.624 461.356 160.432 460.556 160.048C459.788 159.664 459.228 159.232 458.876 158.752C458.524 158.272 458.236 157.728 458.012 157.12C457.788 156.384 457.676 155.744 457.676 155.2C457.676 152.96 458.38 151.168 459.788 149.824C461.196 148.48 463.004 147.52 465.212 146.944C468.124 146.368 469.644 145.84 469.772 145.36C469.868 145.008 469.916 144.416 469.916 143.584C469.916 141.888 469.052 141.04 467.324 141.04C466.588 141.04 465.932 141.28 465.356 141.76C464.78 142.208 464.492 142.784 464.492 143.488L464.78 144.64C464.716 145.184 464.14 145.504 463.052 145.6L462.524 145.648C461.564 145.648 460.796 145.408 460.22 144.928C459.676 144.448 459.404 143.808 459.404 143.008C459.404 142.496 459.564 141.936 459.884 141.328C460.236 140.688 460.668 140.176 461.18 139.792C461.692 139.408 462.476 139.072 463.532 138.784C464.62 138.464 465.66 138.304 466.652 138.304C467.644 138.304 468.412 138.336 468.956 138.4C469.5 138.464 470.236 138.624 471.164 138.88C472.124 139.104 472.908 139.552 473.516 140.224C474.156 140.896 474.492 141.616 474.524 142.384C474.588 143.12 474.62 144.192 474.62 145.6ZM493.222 154.48C493.222 156.304 492.486 157.824 491.014 159.04C489.574 160.224 487.846 160.816 485.83 160.816C482.886 160.816 480.726 159.936 479.35 158.176C477.974 156.384 477.286 153.968 477.286 150.928C477.286 147.696 478.006 144.832 479.446 142.336C480.15 141.056 481.158 140.048 482.47 139.312C483.782 138.576 485.318 138.208 487.078 138.208C489.734 138.208 491.606 139.104 492.694 140.896C493.142 141.632 493.366 142.496 493.366 143.488C493.366 145.024 492.726 146.176 491.446 146.944C490.934 147.232 490.454 147.376 490.006 147.376C489.59 147.376 489.238 147.36 488.95 147.328C488.694 147.264 488.342 147.04 487.894 146.656C487.446 146.272 487.222 145.744 487.222 145.072C487.254 144.72 487.526 144.432 488.038 144.208C488.518 143.92 488.758 143.408 488.758 142.672C488.758 141.424 487.99 140.8 486.454 140.8C486.07 140.8 485.606 140.976 485.062 141.328C484.55 141.648 484.118 142.08 483.766 142.624C483.414 143.136 483.078 143.968 482.758 145.12C482.47 146.24 482.326 147.328 482.326 148.384C482.326 149.408 482.358 150.192 482.422 150.736C482.518 151.248 482.694 151.968 482.95 152.896C483.238 153.792 483.75 154.528 484.486 155.104C485.254 155.68 486.198 155.968 487.318 155.968C488.662 155.968 489.846 155.408 490.87 154.288C491.286 153.84 491.622 153.296 491.878 152.656C492.006 152.4 492.166 152.272 492.358 152.272C492.646 152.272 492.854 152.544 492.982 153.088C493.142 153.6 493.222 154.064 493.222 154.48ZM505.285 144.448C505.157 144.576 505.093 144.72 505.093 144.88C505.093 145.008 505.381 145.136 505.957 145.264C506.565 145.392 507.221 145.744 507.925 146.32C508.629 146.896 509.157 147.52 509.509 148.192C510.181 149.504 510.549 150.656 510.613 151.648L510.661 152.272C510.821 156.016 511.509 158.576 512.725 159.952C512.885 160.176 512.965 160.336 512.965 160.432C512.965 160.784 512.517 160.96 511.621 160.96C508.933 160.96 507.221 160.4 506.485 159.28C506.101 158.832 505.909 157.44 505.909 155.104V153.904C505.909 150.928 505.541 148.864 504.805 147.712C504.421 147.168 503.941 146.896 503.365 146.896C502.821 146.896 502.245 147.392 501.637 148.384C501.029 149.344 500.725 150.16 500.725 150.832C500.725 153.52 500.789 155.392 500.917 156.448C501.045 157.504 501.109 158.048 501.109 158.08C501.109 159.008 500.469 159.728 499.189 160.24C497.941 160.752 496.757 161.008 495.637 161.008C495.221 161.008 495.013 160.752 495.013 160.24V160.048C495.781 156.112 496.165 149.904 496.165 141.424C496.165 138.64 496.101 136.288 495.973 134.368L495.877 133.408C495.813 132.512 495.621 131.744 495.301 131.104C495.013 130.464 494.725 130.048 494.437 129.856L494.053 129.616C493.829 129.488 493.717 129.344 493.717 129.184C493.717 128.672 494.485 128.096 496.021 127.456C497.557 126.816 498.885 126.496 500.005 126.496C500.517 126.528 500.789 126.72 500.821 127.072C500.981 128.352 501.061 130.992 501.061 134.992C501.061 138.96 500.965 142.128 500.773 144.496C500.773 144.88 500.837 145.072 500.965 145.072C501.093 145.072 501.285 144.896 501.541 144.544C501.829 144.16 502.309 143.568 502.981 142.768C503.685 141.968 504.613 141.04 505.765 139.984C506.949 138.928 507.893 138.4 508.597 138.4C509.333 138.4 510.053 138.576 510.757 138.928C511.461 139.28 511.813 139.616 511.813 139.936L511.285 140.272C509.461 140.944 507.461 142.336 505.285 144.448ZM539.471 138.64C538.895 142.096 538.607 146.496 538.607 151.84C538.607 155.776 538.767 158.368 539.087 159.616L539.279 160.24C539.279 160.656 538.927 160.864 538.223 160.864C535.759 160.864 534.351 160.176 533.999 158.8C533.967 158.64 533.887 158.56 533.759 158.56C533.663 158.56 533.567 158.624 533.471 158.752C532.479 160.064 530.943 160.72 528.863 160.72C527.711 160.72 526.511 160.432 525.263 159.856C524.495 159.504 523.871 158.896 523.391 158.032C522.911 157.136 522.671 156.048 522.671 154.768L523.391 144.256C523.391 142.048 523.167 140.48 522.719 139.552C522.559 139.2 522.479 138.976 522.479 138.88C522.479 138.688 522.559 138.56 522.719 138.496C523.231 138.336 523.887 138.256 524.687 138.256C527.791 138.256 529.343 139.536 529.343 142.096C529.343 142.896 529.007 144.72 528.335 147.568C527.695 150.416 527.375 152.448 527.375 153.664C527.375 154.848 527.631 155.76 528.143 156.4C528.687 157.04 529.423 157.36 530.351 157.36C531.311 157.36 532.063 157.024 532.607 156.352C533.151 155.68 533.471 155.008 533.567 154.336L533.711 153.328C533.839 152.208 533.903 150.24 533.903 147.424C533.903 144.608 533.807 142.832 533.615 142.096C533.455 141.328 533.375 140.848 533.375 140.656C533.375 139.856 534.015 139.232 535.295 138.784C536.575 138.304 537.727 138.064 538.751 138.064C539.231 138.064 539.471 138.256 539.471 138.64ZM542.272 152.656C542.336 149.424 542.368 146.768 542.368 144.688C542.368 142.608 542.224 140.624 541.936 138.736C541.936 138.416 542.256 138.256 542.896 138.256C543.536 138.256 544.08 138.336 544.528 138.496C545.008 138.656 545.344 138.832 545.536 139.024C546.048 139.536 546.336 139.792 546.4 139.792C546.496 139.792 546.752 139.648 547.168 139.36C548.416 138.56 549.792 138.16 551.296 138.16C552.832 138.16 554.16 138.544 555.28 139.312C556.432 140.08 557.248 141.088 557.728 142.336C558.592 144.48 559.024 146.752 559.024 149.152C559.024 151.52 558.592 153.888 557.728 156.256C557.248 157.536 556.544 158.592 555.616 159.424C554.688 160.224 553.6 160.624 552.352 160.624C549.888 160.624 548.656 159.2 548.656 156.352C548.656 155.584 548.816 155.2 549.136 155.2C549.2 155.2 549.376 155.28 549.664 155.44C549.984 155.568 550.288 155.632 550.576 155.632C552.848 155.632 553.984 153.232 553.984 148.432C553.984 143.6 552.768 141.184 550.336 141.184C549.664 141.184 549.088 141.344 548.608 141.664C548.16 141.952 547.872 142.24 547.744 142.528L547.552 143.008C547.104 145.888 546.88 151.44 546.88 159.664C546.88 163.376 546.944 166.032 547.072 167.632C547.232 169.264 547.312 170.24 547.312 170.56C547.312 170.88 547.216 171.168 547.024 171.424C546.384 172.256 545.52 172.992 544.432 173.632C543.344 174.304 542.384 174.64 541.552 174.64C541.232 174.64 541.072 174.432 541.072 174.016C541.584 170.784 541.984 163.664 542.272 152.656ZM569.29 141.28L569.434 139.36C569.466 139.072 569.69 138.928 570.106 138.928H571.786L571.594 135.088V134.896C571.594 134.16 572.154 133.456 573.274 132.784C574.394 132.112 575.418 131.776 576.346 131.776C576.634 131.776 576.778 131.904 576.778 132.16V132.208C576.65 133.072 576.522 135.296 576.394 138.88C577.802 138.88 578.698 138.848 579.082 138.784C579.466 138.72 579.674 138.688 579.706 138.688C579.93 138.688 580.042 138.88 580.042 139.264C580.042 139.648 579.866 140.144 579.514 140.752C579.162 141.328 578.778 141.632 578.362 141.664H576.346C576.314 142.752 576.298 144.592 576.298 147.184C576.298 149.744 576.314 151.856 576.346 153.52C576.41 155.184 576.474 156.448 576.538 157.312C576.602 158.144 576.666 158.816 576.73 159.328C576.826 159.84 576.89 160.208 576.922 160.432C576.986 160.656 577.018 160.8 577.018 160.864C577.018 161.184 576.81 161.36 576.394 161.392C575.146 161.392 573.898 161.216 572.65 160.864C571.434 160.512 570.826 159.904 570.826 159.04C571.498 153.664 571.834 147.888 571.834 141.712C570.97 141.712 570.314 141.744 569.866 141.808H569.818C569.53 141.808 569.354 141.632 569.29 141.28ZM585.449 141.904C584.617 141.936 584.009 141.968 583.625 142C583.273 142 583.097 141.904 583.097 141.712C583.097 141.52 583.193 141.328 583.385 141.136C585.433 139.248 588.889 138.304 593.753 138.304C595.417 138.304 596.729 138.448 597.689 138.736L598.169 138.88C598.553 139.04 598.745 139.216 598.745 139.408C598.745 139.568 598.633 139.696 598.409 139.792C597.545 140.048 596.713 140.464 595.913 141.04C595.113 141.584 594.713 141.968 594.713 142.192L595.001 142.528C596.025 143.104 596.809 144.016 597.353 145.264C597.929 146.512 598.249 147.616 598.313 148.576L598.409 150.064C598.409 153.232 597.529 155.84 595.769 157.888C594.009 159.936 591.609 160.96 588.569 160.96C587.033 160.96 585.705 160.688 584.585 160.144C583.465 159.6 582.633 158.992 582.089 158.32C581.577 157.616 581.161 156.832 580.841 155.968C580.457 154.784 580.265 153.568 580.265 152.32C580.265 151.04 580.473 149.76 580.889 148.48C581.337 147.2 581.833 146.256 582.377 145.648C582.953 145.04 583.593 144.544 584.297 144.16C585.193 143.68 585.913 143.44 586.457 143.44C587.001 143.44 587.273 143.552 587.273 143.776L586.985 144.256C586.281 145.088 585.769 146.176 585.449 147.52C585.161 148.864 585.017 150.064 585.017 151.12C585.017 152.144 585.145 153.168 585.401 154.192C585.657 155.216 585.945 155.984 586.265 156.496C586.585 156.976 586.953 157.344 587.369 157.6C587.977 157.984 588.617 158.176 589.289 158.176C589.961 158.176 590.617 157.92 591.257 157.408C591.897 156.864 592.361 156.16 592.649 155.296C593.225 153.696 593.513 152.048 593.513 150.352C593.513 147.664 592.825 145.584 591.449 144.112C590.105 142.64 588.105 141.904 585.449 141.904ZM622.342 160.48L614.71 160.048C612.886 160.048 611.398 160.304 610.246 160.816C610.022 160.912 609.83 160.96 609.67 160.96C609.254 160.96 609.046 160.432 609.046 159.376C609.046 158.288 609.35 157.008 609.958 155.536C610.566 154.032 611.302 152.64 612.166 151.36C613.99 148.576 615.574 146.464 616.918 145.024L617.83 144.064C619.59 142.176 620.998 140.32 622.054 138.496C623.142 136.672 623.686 134.688 623.686 132.544C623.686 130.528 622.902 129.248 621.334 128.704C620.982 128.576 620.486 128.512 619.846 128.512C619.206 128.48 618.598 128.592 618.022 128.848C617.446 129.104 617.014 129.424 616.726 129.808C616.182 130.608 615.894 131.344 615.862 132.016C615.798 133.168 616.054 133.936 616.63 134.32L616.87 134.512C617.542 134.8 617.878 135.232 617.878 135.808V135.856C617.878 136.72 617.622 137.408 617.11 137.92C616.598 138.4 616.086 138.672 615.574 138.736L614.758 138.832C613.798 138.832 612.982 138.656 612.31 138.304C611.67 137.952 611.222 137.504 610.966 136.96C610.486 136 610.246 135.04 610.246 134.08C610.246 131.36 611.27 129.232 613.318 127.696C615.398 126.16 617.766 125.392 620.422 125.392C623.078 125.392 625.318 126.08 627.142 127.456C628.966 128.832 629.878 130.752 629.878 133.216C629.878 136.544 628.454 139.472 625.606 142L624.646 142.816C620.358 146.464 617.542 149.44 616.198 151.744C615.718 152.544 615.478 153.216 615.478 153.76C615.478 154.112 615.782 154.336 616.39 154.432C617.03 154.496 618.246 154.528 620.038 154.528C624.55 154.528 627.478 153.792 628.822 152.32C628.982 152.224 629.142 152.176 629.302 152.176C629.686 152.176 629.878 152.72 629.878 153.808C629.878 154.896 629.654 156.064 629.206 157.312C628.758 158.528 628.102 159.392 627.238 159.904C626.63 160.288 624.998 160.48 622.342 160.48ZM637.723 134.32L636.571 134.272C635.707 134.272 635.147 134.48 634.891 134.896C634.827 134.992 634.747 135.04 634.651 135.04C634.235 135.04 634.027 134.336 634.027 132.928C634.027 131.488 634.235 130.576 634.651 130.192C635.099 129.808 635.867 129.616 636.955 129.616C638.043 129.616 638.763 129.808 639.115 130.192C639.499 130.544 639.691 131.152 639.691 132.016C639.691 132.88 639.547 133.488 639.259 133.84C638.971 134.16 638.459 134.32 637.723 134.32ZM639.787 138.88C639.499 141.472 639.355 144.512 639.355 148C639.227 152.704 639.163 156.752 639.163 160.144L639.211 163.936C639.211 165.6 638.955 167.136 638.443 168.544C637.963 169.984 637.371 171.152 636.667 172.048C635.995 172.944 634.955 173.728 633.547 174.4C632.171 175.072 630.555 175.408 628.699 175.408C628.123 175.408 627.835 175.2 627.835 174.784C627.835 174.56 628.091 174.336 628.603 174.112C630.843 173.056 632.427 170.688 633.355 167.008C634.315 163.328 634.795 158.848 634.795 153.568C634.795 146.144 634.219 142.08 633.067 141.376C632.747 141.152 632.587 140.96 632.587 140.8C632.587 140.256 633.419 139.712 635.083 139.168C636.747 138.624 637.947 138.352 638.683 138.352C639.419 138.352 639.787 138.528 639.787 138.88ZM641.947 141.28L642.091 139.36C642.123 139.072 642.347 138.928 642.763 138.928H644.443L644.251 135.088V134.896C644.251 134.16 644.811 133.456 645.931 132.784C647.051 132.112 648.075 131.776 649.003 131.776C649.291 131.776 649.435 131.904 649.435 132.16V132.208C649.307 133.072 649.179 135.296 649.051 138.88C650.459 138.88 651.355 138.848 651.739 138.784C652.123 138.72 652.331 138.688 652.363 138.688C652.587 138.688 652.699 138.88 652.699 139.264C652.699 139.648 652.523 140.144 652.171 140.752C651.819 141.328 651.435 141.632 651.019 141.664H649.003C648.971 142.752 648.955 144.592 648.955 147.184C648.955 149.744 648.971 151.856 649.003 153.52C649.067 155.184 649.131 156.448 649.195 157.312C649.259 158.144 649.323 158.816 649.387 159.328C649.483 159.84 649.547 160.208 649.579 160.432C649.643 160.656 649.675 160.8 649.675 160.864C649.675 161.184 649.467 161.36 649.051 161.392C647.803 161.392 646.555 161.216 645.307 160.864C644.091 160.512 643.483 159.904 643.483 159.04C644.155 153.664 644.491 147.888 644.491 141.712C643.627 141.712 642.971 141.744 642.523 141.808H642.475C642.187 141.808 642.011 141.632 641.947 141.28ZM143.238 208.4L143.286 214.4L143.094 222.704C143.126 222.832 143.174 222.896 143.238 222.896C143.302 222.896 143.35 222.864 143.382 222.8C144.022 221.904 144.806 221.456 145.734 221.456C146.694 221.456 147.174 221.648 147.174 222.032C147.174 223.248 147.398 224.192 147.846 224.864C148.326 225.504 148.982 225.824 149.814 225.824C150.678 225.824 151.494 225.248 152.262 224.096C153.062 222.944 153.462 221.408 153.462 219.488C153.462 218.848 153.334 218.08 153.078 217.184C152.566 215.392 151.606 214.192 150.198 213.584C149.174 213.168 147.51 212.96 145.206 212.96C144.95 212.96 144.822 212.784 144.822 212.432C144.822 210.64 145.142 209.712 145.782 209.648C146.646 209.648 147.558 209.424 148.518 208.976C150.438 208.08 151.398 206.24 151.398 203.456C151.398 200.448 149.67 198.944 146.214 198.944L144.726 199.04C144.15 199.168 143.83 199.408 143.766 199.76V199.904C143.414 201.184 143.238 204.016 143.238 208.4ZM136.182 230.672L136.278 230.144C136.598 229.568 136.87 227.232 137.094 223.136C137.318 219.008 137.43 215.168 137.43 211.616C137.43 208.032 137.35 205.168 137.19 203.024C137.062 200.848 136.678 199.28 136.038 198.32C135.91 198.16 135.846 197.968 135.846 197.744C135.846 197.52 136.038 197.328 136.422 197.168C139.046 196.144 142.614 195.632 147.126 195.632C148.246 195.632 149.462 195.792 150.774 196.112C152.086 196.4 153.158 196.768 153.99 197.216C154.854 197.664 155.622 198.352 156.294 199.28C156.998 200.208 157.398 201.312 157.494 202.592C157.494 207.232 155.574 209.904 151.734 210.608C151.542 210.672 151.446 210.752 151.446 210.848C151.446 210.912 151.526 210.992 151.686 211.088C153.67 211.408 155.334 212.208 156.678 213.488C157.35 214.096 157.958 215.04 158.502 216.32C159.046 217.6 159.318 219.072 159.318 220.736C159.318 222.88 158.694 224.912 157.446 226.832C156.422 228.4 154.934 229.52 152.982 230.192C151.894 230.576 150.678 230.768 149.334 230.768C145.974 230.768 143.846 229.696 142.95 227.552C142.918 227.456 142.87 227.408 142.806 227.408L142.614 227.6C141.942 229.84 140.022 231.008 136.854 231.104C136.406 231.104 136.182 230.96 136.182 230.672ZM166.157 204.32L165.005 204.272C164.141 204.272 163.581 204.48 163.325 204.896C163.261 204.992 163.181 205.04 163.085 205.04C162.669 205.04 162.461 204.336 162.461 202.928C162.461 201.488 162.669 200.576 163.085 200.192C163.533 199.808 164.285 199.616 165.341 199.616C166.429 199.616 167.165 199.808 167.549 200.192C167.933 200.544 168.125 201.152 168.125 202.016C168.125 202.88 167.981 203.488 167.693 203.84C167.405 204.16 166.893 204.32 166.157 204.32ZM162.317 228.56L162.845 217.376C162.845 214.72 162.541 212.912 161.933 211.952C161.741 211.632 161.517 211.392 161.261 211.232C161.069 211.168 160.973 211.04 160.973 210.848C160.973 210.272 161.789 209.712 163.421 209.168C165.053 208.624 166.237 208.352 166.973 208.352C167.741 208.352 168.141 208.544 168.173 208.928C168.173 209.568 168.077 211.392 167.885 214.4C167.725 217.376 167.645 220.512 167.645 223.808C167.645 227.104 167.837 229.152 168.221 229.952C168.317 230.112 168.365 230.272 168.365 230.432C168.365 230.848 167.757 231.056 166.541 231.056C165.325 231.056 164.077 230.736 162.797 230.096C162.477 229.936 162.317 229.424 162.317 228.56ZM181.66 214.448C181.532 214.576 181.468 214.72 181.468 214.88C181.468 215.008 181.756 215.136 182.332 215.264C182.94 215.392 183.596 215.744 184.3 216.32C185.004 216.896 185.532 217.52 185.884 218.192C186.556 219.504 186.924 220.656 186.988 221.648L187.036 222.272C187.196 226.016 187.884 228.576 189.1 229.952C189.26 230.176 189.34 230.336 189.34 230.432C189.34 230.784 188.892 230.96 187.996 230.96C185.308 230.96 183.596 230.4 182.86 229.28C182.476 228.832 182.284 227.44 182.284 225.104V223.904C182.284 220.928 181.916 218.864 181.18 217.712C180.796 217.168 180.316 216.896 179.74 216.896C179.196 216.896 178.62 217.392 178.012 218.384C177.404 219.344 177.1 220.16 177.1 220.832C177.1 223.52 177.164 225.392 177.292 226.448C177.42 227.504 177.484 228.048 177.484 228.08C177.484 229.008 176.844 229.728 175.564 230.24C174.316 230.752 173.132 231.008 172.012 231.008C171.596 231.008 171.388 230.752 171.388 230.24V230.048C172.156 226.112 172.54 219.904 172.54 211.424C172.54 208.64 172.476 206.288 172.348 204.368L172.252 203.408C172.188 202.512 171.996 201.744 171.676 201.104C171.388 200.464 171.1 200.048 170.812 199.856L170.428 199.616C170.204 199.488 170.092 199.344 170.092 199.184C170.092 198.672 170.86 198.096 172.396 197.456C173.932 196.816 175.26 196.496 176.38 196.496C176.892 196.528 177.164 196.72 177.196 197.072C177.356 198.352 177.436 200.992 177.436 204.992C177.436 208.96 177.34 212.128 177.148 214.496C177.148 214.88 177.212 215.072 177.34 215.072C177.468 215.072 177.66 214.896 177.916 214.544C178.204 214.16 178.684 213.568 179.356 212.768C180.06 211.968 180.988 211.04 182.14 209.984C183.324 208.928 184.268 208.4 184.972 208.4C185.708 208.4 186.428 208.576 187.132 208.928C187.836 209.28 188.188 209.616 188.188 209.936L187.66 210.272C185.836 210.944 183.836 212.336 181.66 214.448ZM195.173 204.32L194.021 204.272C193.157 204.272 192.597 204.48 192.341 204.896C192.277 204.992 192.197 205.04 192.101 205.04C191.685 205.04 191.477 204.336 191.477 202.928C191.477 201.488 191.685 200.576 192.101 200.192C192.549 199.808 193.301 199.616 194.357 199.616C195.445 199.616 196.181 199.808 196.565 200.192C196.949 200.544 197.141 201.152 197.141 202.016C197.141 202.88 196.997 203.488 196.709 203.84C196.421 204.16 195.909 204.32 195.173 204.32ZM191.333 228.56L191.861 217.376C191.861 214.72 191.557 212.912 190.949 211.952C190.757 211.632 190.533 211.392 190.277 211.232C190.085 211.168 189.989 211.04 189.989 210.848C189.989 210.272 190.805 209.712 192.437 209.168C194.069 208.624 195.253 208.352 195.989 208.352C196.757 208.352 197.157 208.544 197.189 208.928C197.189 209.568 197.093 211.392 196.901 214.4C196.741 217.376 196.661 220.512 196.661 223.808C196.661 227.104 196.853 229.152 197.237 229.952C197.333 230.112 197.381 230.272 197.381 230.432C197.381 230.848 196.773 231.056 195.557 231.056C194.341 231.056 193.093 230.736 191.813 230.096C191.493 229.936 191.333 229.424 191.333 228.56ZM200.307 230.336C200.883 226.88 201.171 222.736 201.171 217.904C201.171 213.072 201.027 209.936 200.739 208.496C200.739 208.08 201.219 207.872 202.179 207.872C203.651 207.872 204.627 208.432 205.107 209.552C205.139 209.648 205.219 209.696 205.347 209.696C205.475 209.696 205.571 209.664 205.635 209.6C206.627 208.576 208.163 208.064 210.243 208.064C212.323 208.064 213.971 208.592 215.187 209.648C216.403 210.704 217.011 212.24 217.011 214.256C217.011 215.472 216.899 217.2 216.675 219.44C216.483 221.68 216.387 223.344 216.387 224.432C216.387 227.024 216.819 228.896 217.683 230.048C217.811 230.208 217.875 230.368 217.875 230.528C217.875 230.944 217.427 231.152 216.531 231.152C212.563 231.152 210.579 229.392 210.579 225.872C210.579 224.528 210.883 222.656 211.491 220.256C212.099 217.856 212.403 216.032 212.403 214.784C212.403 212.224 211.347 210.944 209.235 210.944C208.211 210.944 207.427 211.248 206.883 211.856C206.371 212.464 206.083 213.168 206.019 213.968C205.955 214.736 205.923 216.208 205.923 218.384C205.923 221.712 206.035 224.608 206.259 227.072L206.355 228.128C206.355 229.024 205.763 229.712 204.579 230.192C203.427 230.704 202.419 230.96 201.555 230.96C200.723 230.96 200.307 230.752 200.307 230.336ZM239 209.888C239.128 209.888 239.368 210.016 239.72 210.272C240.072 210.528 240.44 210.656 240.824 210.656H240.872C241.96 210.656 242.824 210.224 243.464 209.36C244.104 208.496 244.456 207.632 244.52 206.768L244.664 205.472C244.664 204.256 244.472 203.216 244.088 202.352C243.736 201.456 243.32 200.8 242.84 200.384C242.36 199.936 241.8 199.6 241.16 199.376C240.36 199.056 239.512 198.896 238.616 198.896C237.752 198.896 237.048 198.992 236.504 199.184C235.96 199.344 235.656 199.504 235.592 199.664L235.544 199.952C235.256 204.272 235.112 208.144 235.112 211.568C235.112 214.96 235.16 217.888 235.256 220.352C235.384 222.816 235.496 224.72 235.592 226.064C235.72 227.376 235.784 228.096 235.784 228.224C235.784 229.024 235.08 229.664 233.672 230.144C232.264 230.624 230.872 230.864 229.496 230.864C228.856 230.864 228.536 230.704 228.536 230.384C228.536 230.288 228.584 230.064 228.68 229.712C229.288 228.304 229.592 221.76 229.592 210.08C229.592 203.2 229.128 199.264 228.2 198.272C228.008 198.08 227.912 197.888 227.912 197.696C227.912 197.472 228.136 197.232 228.584 196.976C229.064 196.72 230.376 196.432 232.52 196.112C234.664 195.76 236.936 195.584 239.336 195.584C243.112 195.584 245.944 196.608 247.832 198.656C249.752 200.704 250.712 203.152 250.712 206C250.712 208.816 249.928 211.264 248.36 213.344C246.824 215.424 244.808 216.464 242.312 216.464C241.512 216.464 240.712 216.32 239.912 216.032C238.312 215.456 237.512 214.256 237.512 212.432C237.512 212.048 237.64 211.536 237.896 210.896C238.152 210.224 238.52 209.888 239 209.888ZM255.614 195.824L262.526 196.208C265.598 196.208 267.806 195.84 269.15 195.104C269.342 194.976 269.502 194.912 269.63 194.912C269.79 194.912 269.87 195.136 269.87 195.584C269.87 196.032 269.598 196.768 269.054 197.792C268.254 199.36 267.102 200.144 265.598 200.144L262.958 200.096C262.702 200.096 262.542 200.24 262.478 200.528C262.254 205.232 262.142 210.32 262.142 215.792C262.142 221.232 262.366 225.328 262.814 228.08V228.32C262.814 229.12 262.046 229.76 260.51 230.24C259.006 230.72 257.582 230.96 256.238 230.96C255.598 230.96 255.278 230.784 255.278 230.432C255.278 230.336 255.326 230.112 255.422 229.76C255.774 229.056 256.078 225.648 256.334 219.536C256.622 213.424 256.766 208.816 256.766 205.712L256.67 200.48C256.67 200.288 256.574 200.176 256.382 200.144C255.71 200.016 254.942 199.952 254.078 199.952C252.35 199.952 251.07 200.304 250.238 201.008C250.014 201.168 249.806 201.248 249.614 201.248C249.39 201.248 249.278 201.12 249.278 200.864C249.278 200.48 249.486 199.952 249.902 199.28C250.286 198.608 250.702 198.032 251.15 197.552C252.238 196.4 253.726 195.824 255.614 195.824ZM290.515 230.288C290.963 228.048 291.187 224.912 291.187 220.88C291.187 216.816 291.171 214.416 291.139 213.68C291.107 212.944 290.883 212.352 290.467 211.904C290.051 211.456 289.683 211.2 289.363 211.136C289.075 211.072 288.659 211.04 288.115 211.04C287.571 211.04 287.043 211.296 286.531 211.808C286.019 212.288 285.715 212.784 285.619 213.296L285.427 214.064C285.331 215.024 285.283 217.152 285.283 220.448C285.283 223.744 285.347 225.824 285.475 226.688C285.635 227.52 285.715 228.08 285.715 228.368C285.715 228.656 285.587 228.944 285.331 229.232C284.243 230.384 282.707 230.96 280.723 230.96C280.019 230.96 279.667 230.752 279.667 230.336C280.307 226.496 280.627 221.6 280.627 215.648C280.627 213.44 280.579 211.952 280.483 211.184L280.291 209.648C280.259 209.296 280.195 208.912 280.099 208.496C280.099 208.112 280.595 207.92 281.587 207.92C283.059 207.92 284.035 208.464 284.515 209.552C284.547 209.68 284.611 209.744 284.707 209.744C284.803 209.744 285.027 209.616 285.379 209.36C286.435 208.528 287.859 208.112 289.651 208.112C290.675 208.112 291.683 208.304 292.675 208.688C293.667 209.072 294.355 209.584 294.739 210.224C294.771 210.288 294.819 210.32 294.883 210.32C294.947 210.32 295.043 210.256 295.171 210.128C296.515 208.784 298.259 208.112 300.403 208.112C303.251 208.112 305.203 209.136 306.259 211.184C306.643 211.984 306.835 212.992 306.835 214.208C306.835 215.424 306.739 217.152 306.547 219.392C306.355 221.632 306.259 223.344 306.259 224.528C306.259 225.712 306.371 226.784 306.595 227.744C306.851 228.704 307.091 229.392 307.315 229.808C307.571 230.224 307.699 230.464 307.699 230.528C307.699 230.944 307.251 231.152 306.355 231.152C304.147 231.152 302.611 230.704 301.747 229.808C300.883 228.912 300.451 227.744 300.451 226.304C300.451 224.832 300.739 222.864 301.315 220.4C301.923 217.904 302.227 216.032 302.227 214.784C302.227 212.256 301.203 210.992 299.155 210.992C298.291 210.992 297.603 211.248 297.091 211.76C296.579 212.272 296.275 212.784 296.179 213.296L296.083 214.064C295.955 215.536 295.891 217.312 295.891 219.392C295.891 221.472 295.923 223.104 295.987 224.288C296.051 225.44 296.115 226.352 296.179 227.024C296.243 227.664 296.275 228.048 296.275 228.176C296.275 229.072 295.715 229.76 294.595 230.24C293.475 230.72 292.387 230.96 291.331 230.96C290.787 230.96 290.515 230.736 290.515 230.288ZM326.284 208.64C325.708 212.096 325.42 216.496 325.42 221.84C325.42 225.776 325.58 228.368 325.9 229.616L326.092 230.24C326.092 230.656 325.74 230.864 325.036 230.864C322.572 230.864 321.164 230.176 320.812 228.8C320.78 228.64 320.7 228.56 320.572 228.56C320.476 228.56 320.38 228.624 320.284 228.752C319.292 230.064 317.756 230.72 315.676 230.72C314.524 230.72 313.324 230.432 312.076 229.856C311.308 229.504 310.684 228.896 310.204 228.032C309.724 227.136 309.484 226.048 309.484 224.768L310.204 214.256C310.204 212.048 309.98 210.48 309.532 209.552C309.372 209.2 309.292 208.976 309.292 208.88C309.292 208.688 309.372 208.56 309.532 208.496C310.044 208.336 310.7 208.256 311.5 208.256C314.604 208.256 316.156 209.536 316.156 212.096C316.156 212.896 315.82 214.72 315.148 217.568C314.508 220.416 314.188 222.448 314.188 223.664C314.188 224.848 314.444 225.76 314.956 226.4C315.5 227.04 316.236 227.36 317.164 227.36C318.124 227.36 318.876 227.024 319.42 226.352C319.964 225.68 320.284 225.008 320.38 224.336L320.524 223.328C320.652 222.208 320.716 220.24 320.716 217.424C320.716 214.608 320.62 212.832 320.428 212.096C320.268 211.328 320.188 210.848 320.188 210.656C320.188 209.856 320.828 209.232 322.108 208.784C323.388 208.304 324.54 208.064 325.564 208.064C326.044 208.064 326.284 208.256 326.284 208.64ZM335.084 202.544L334.796 220.16C334.796 225.664 334.972 228.96 335.324 230.048C335.42 230.24 335.468 230.432 335.468 230.624C335.468 231.008 335.004 231.2 334.076 231.2C333.148 231.2 332.108 230.96 330.956 230.48C329.836 230.032 329.276 229.44 329.276 228.704C329.916 224.224 330.236 218.24 330.236 210.752L330.044 203.408C329.98 202.512 329.788 201.744 329.468 201.104C329.18 200.464 328.892 200.048 328.604 199.856L328.22 199.616C327.996 199.488 327.884 199.344 327.884 199.184C327.884 198.736 328.572 198.192 329.948 197.552C331.356 196.88 332.716 196.544 334.028 196.544C334.54 196.544 334.828 196.72 334.892 197.072C335.02 197.904 335.084 199.728 335.084 202.544ZM354.386 215.6L354.29 221.744C354.29 226 354.754 228.56 355.682 229.424C355.81 229.552 355.874 229.696 355.874 229.856C355.874 230.336 354.834 230.576 352.754 230.576C350.706 230.576 349.618 229.968 349.49 228.752C349.458 228.464 349.442 227.872 349.442 226.976L349.634 219.296C349.634 219.072 349.506 218.96 349.25 218.96C347.714 218.96 346.274 219.392 344.93 220.256C343.586 221.12 342.914 222.224 342.914 223.568C342.914 224.272 343.106 224.864 343.49 225.344C343.874 225.824 344.338 226.064 344.882 226.064C345.458 226.064 345.922 225.952 346.274 225.728C346.658 225.504 346.882 225.376 346.946 225.344C347.49 225.408 347.762 225.984 347.762 227.072C347.762 228.128 347.266 228.992 346.274 229.664C345.282 230.304 344.242 230.624 343.154 230.624C342.066 230.624 341.122 230.432 340.322 230.048C339.554 229.664 338.994 229.232 338.642 228.752C338.29 228.272 338.002 227.728 337.778 227.12C337.554 226.384 337.442 225.744 337.442 225.2C337.442 222.96 338.146 221.168 339.554 219.824C340.962 218.48 342.77 217.52 344.978 216.944C347.89 216.368 349.41 215.84 349.538 215.36C349.634 215.008 349.682 214.416 349.682 213.584C349.682 211.888 348.818 211.04 347.09 211.04C346.354 211.04 345.698 211.28 345.122 211.76C344.546 212.208 344.258 212.784 344.258 213.488L344.546 214.64C344.482 215.184 343.906 215.504 342.818 215.6L342.29 215.648C341.33 215.648 340.562 215.408 339.986 214.928C339.442 214.448 339.17 213.808 339.17 213.008C339.17 212.496 339.33 211.936 339.65 211.328C340.002 210.688 340.434 210.176 340.946 209.792C341.458 209.408 342.242 209.072 343.298 208.784C344.386 208.464 345.426 208.304 346.418 208.304C347.41 208.304 348.178 208.336 348.722 208.4C349.266 208.464 350.002 208.624 350.93 208.88C351.89 209.104 352.674 209.552 353.282 210.224C353.922 210.896 354.258 211.616 354.29 212.384C354.354 213.12 354.386 214.192 354.386 215.6ZM362.236 204.32L361.084 204.272C360.22 204.272 359.66 204.48 359.404 204.896C359.34 204.992 359.26 205.04 359.164 205.04C358.748 205.04 358.54 204.336 358.54 202.928C358.54 201.488 358.748 200.576 359.164 200.192C359.612 199.808 360.364 199.616 361.42 199.616C362.508 199.616 363.244 199.808 363.628 200.192C364.012 200.544 364.204 201.152 364.204 202.016C364.204 202.88 364.06 203.488 363.772 203.84C363.484 204.16 362.972 204.32 362.236 204.32ZM358.396 228.56L358.924 217.376C358.924 214.72 358.62 212.912 358.012 211.952C357.82 211.632 357.596 211.392 357.34 211.232C357.148 211.168 357.052 211.04 357.052 210.848C357.052 210.272 357.868 209.712 359.5 209.168C361.132 208.624 362.316 208.352 363.052 208.352C363.82 208.352 364.22 208.544 364.252 208.928C364.252 209.568 364.156 211.392 363.964 214.4C363.804 217.376 363.724 220.512 363.724 223.808C363.724 227.104 363.916 229.152 364.3 229.952C364.396 230.112 364.444 230.272 364.444 230.432C364.444 230.848 363.836 231.056 362.62 231.056C361.404 231.056 360.156 230.736 358.876 230.096C358.556 229.936 358.396 229.424 358.396 228.56ZM380.891 212.96C380.667 212.96 380.555 212.88 380.555 212.72V212.624C380.651 210.576 381.227 209.552 382.283 209.552H383.243C384.395 209.552 385.387 209.36 386.219 208.976C387.083 208.592 387.739 208.144 388.187 207.632C388.635 207.088 388.987 206.448 389.243 205.712C389.627 204.656 389.819 203.648 389.819 202.688C389.819 201.696 389.675 200.912 389.387 200.336C389.099 199.76 388.731 199.36 388.283 199.136C387.579 198.784 386.779 198.608 385.883 198.608C384.987 198.608 384.171 198.944 383.435 199.616C382.699 200.288 382.331 201.184 382.331 202.304C382.331 202.784 382.427 203.264 382.619 203.744C382.811 204.224 382.907 204.512 382.907 204.608C382.907 205.088 382.635 205.456 382.091 205.712C381.547 205.936 380.907 206.048 380.171 206.048C379.467 206.048 378.843 205.808 378.299 205.328C377.755 204.848 377.419 204.384 377.291 203.936C377.195 203.456 377.147 202.976 377.147 202.496C377.147 200.928 377.691 199.616 378.779 198.56C380.731 196.704 383.483 195.776 387.035 195.776C387.771 195.776 388.683 195.92 389.771 196.208C390.891 196.464 391.819 196.816 392.555 197.264C393.291 197.68 393.963 198.368 394.571 199.328C395.179 200.288 395.483 201.392 395.483 202.64C395.483 203.856 395.275 204.944 394.859 205.904C394.475 206.832 393.995 207.568 393.419 208.112C392.203 209.232 391.131 209.904 390.203 210.128L389.627 210.32C389.435 210.448 389.339 210.576 389.339 210.704C389.339 210.8 389.435 210.864 389.627 210.896C389.851 210.928 390.107 210.992 390.395 211.088C390.715 211.152 391.275 211.392 392.075 211.808C392.875 212.192 393.579 212.688 394.187 213.296C394.795 213.904 395.339 214.8 395.819 215.984C396.331 217.136 396.587 218.608 396.587 220.4C396.587 222.16 396.203 223.792 395.435 225.296C394.667 226.768 393.723 227.84 392.603 228.512C390.331 229.92 388.315 230.656 386.555 230.72L385.403 230.768C382.363 230.768 380.011 230.144 378.347 228.896C376.683 227.616 375.851 225.936 375.851 223.856C375.851 222.256 376.283 220.832 377.147 219.584C378.043 218.336 379.227 217.712 380.699 217.712C381.499 217.712 382.219 217.888 382.859 218.24C383.531 218.592 383.867 219.104 383.867 219.776C383.867 220.128 383.723 220.368 383.435 220.496C382.955 220.784 382.587 221.2 382.331 221.744C382.075 222.256 381.931 222.704 381.899 223.088L381.851 223.664C381.851 224.816 382.171 225.76 382.811 226.496C383.451 227.2 384.283 227.552 385.307 227.552C388.635 227.552 390.299 224.816 390.299 219.344C390.299 217.072 389.595 215.424 388.187 214.4C386.779 213.376 384.939 212.864 382.667 212.864C382.475 212.864 382.283 212.864 382.091 212.864L380.987 212.96H380.891ZM403.958 204.32L402.806 204.272C401.942 204.272 401.382 204.48 401.126 204.896C401.062 204.992 400.982 205.04 400.886 205.04C400.47 205.04 400.262 204.336 400.262 202.928C400.262 201.488 400.47 200.576 400.886 200.192C401.334 199.808 402.102 199.616 403.19 199.616C404.278 199.616 404.998 199.808 405.35 200.192C405.734 200.544 405.926 201.152 405.926 202.016C405.926 202.88 405.782 203.488 405.494 203.84C405.206 204.16 404.694 204.32 403.958 204.32ZM406.022 208.88C405.734 211.472 405.59 214.512 405.59 218C405.462 222.704 405.398 226.752 405.398 230.144L405.446 233.936C405.446 235.6 405.19 237.136 404.678 238.544C404.198 239.984 403.606 241.152 402.902 242.048C402.23 242.944 401.19 243.728 399.782 244.4C398.406 245.072 396.79 245.408 394.934 245.408C394.358 245.408 394.07 245.2 394.07 244.784C394.07 244.56 394.326 244.336 394.838 244.112C397.078 243.056 398.662 240.688 399.59 237.008C400.55 233.328 401.03 228.848 401.03 223.568C401.03 216.144 400.454 212.08 399.302 211.376C398.982 211.152 398.822 210.96 398.822 210.8C398.822 210.256 399.654 209.712 401.318 209.168C402.982 208.624 404.182 208.352 404.918 208.352C405.654 208.352 406.022 208.528 406.022 208.88ZM425.893 208.64C425.317 212.096 425.029 216.496 425.029 221.84C425.029 225.776 425.189 228.368 425.509 229.616L425.701 230.24C425.701 230.656 425.349 230.864 424.645 230.864C422.181 230.864 420.773 230.176 420.421 228.8C420.389 228.64 420.309 228.56 420.181 228.56C420.085 228.56 419.989 228.624 419.893 228.752C418.901 230.064 417.365 230.72 415.285 230.72C414.133 230.72 412.933 230.432 411.685 229.856C410.917 229.504 410.293 228.896 409.813 228.032C409.333 227.136 409.093 226.048 409.093 224.768L409.813 214.256C409.813 212.048 409.589 210.48 409.141 209.552C408.981 209.2 408.901 208.976 408.901 208.88C408.901 208.688 408.981 208.56 409.141 208.496C409.653 208.336 410.309 208.256 411.109 208.256C414.213 208.256 415.765 209.536 415.765 212.096C415.765 212.896 415.429 214.72 414.757 217.568C414.117 220.416 413.797 222.448 413.797 223.664C413.797 224.848 414.053 225.76 414.565 226.4C415.109 227.04 415.845 227.36 416.773 227.36C417.733 227.36 418.485 227.024 419.029 226.352C419.573 225.68 419.893 225.008 419.989 224.336L420.133 223.328C420.261 222.208 420.325 220.24 420.325 217.424C420.325 214.608 420.229 212.832 420.037 212.096C419.877 211.328 419.797 210.848 419.797 210.656C419.797 209.856 420.437 209.232 421.717 208.784C422.997 208.304 424.149 208.064 425.173 208.064C425.653 208.064 425.893 208.256 425.893 208.64ZM427.493 211.28L427.637 209.36C427.669 209.072 427.893 208.928 428.309 208.928H429.989L429.797 205.088V204.896C429.797 204.16 430.357 203.456 431.477 202.784C432.597 202.112 433.621 201.776 434.549 201.776C434.837 201.776 434.981 201.904 434.981 202.16V202.208C434.853 203.072 434.725 205.296 434.597 208.88C436.005 208.88 436.901 208.848 437.285 208.784C437.669 208.72 437.877 208.688 437.909 208.688C438.133 208.688 438.245 208.88 438.245 209.264C438.245 209.648 438.069 210.144 437.717 210.752C437.365 211.328 436.981 211.632 436.565 211.664H434.549C434.517 212.752 434.501 214.592 434.501 217.184C434.501 219.744 434.517 221.856 434.549 223.52C434.613 225.184 434.677 226.448 434.741 227.312C434.805 228.144 434.869 228.816 434.933 229.328C435.029 229.84 435.093 230.208 435.125 230.432C435.189 230.656 435.221 230.8 435.221 230.864C435.221 231.184 435.013 231.36 434.597 231.392C433.349 231.392 432.101 231.216 430.853 230.864C429.637 230.512 429.029 229.904 429.029 229.04C429.701 223.664 430.037 217.888 430.037 211.712C429.173 211.712 428.517 211.744 428.069 211.808H428.021C427.733 211.808 427.557 211.632 427.493 211.28ZM454.98 215.6L454.884 221.744C454.884 226 455.348 228.56 456.276 229.424C456.404 229.552 456.468 229.696 456.468 229.856C456.468 230.336 455.428 230.576 453.348 230.576C451.3 230.576 450.212 229.968 450.084 228.752C450.052 228.464 450.036 227.872 450.036 226.976L450.228 219.296C450.228 219.072 450.1 218.96 449.844 218.96C448.308 218.96 446.868 219.392 445.524 220.256C444.18 221.12 443.508 222.224 443.508 223.568C443.508 224.272 443.7 224.864 444.084 225.344C444.468 225.824 444.932 226.064 445.476 226.064C446.052 226.064 446.516 225.952 446.868 225.728C447.252 225.504 447.476 225.376 447.54 225.344C448.084 225.408 448.356 225.984 448.356 227.072C448.356 228.128 447.86 228.992 446.868 229.664C445.876 230.304 444.836 230.624 443.748 230.624C442.66 230.624 441.716 230.432 440.916 230.048C440.148 229.664 439.588 229.232 439.236 228.752C438.884 228.272 438.596 227.728 438.372 227.12C438.148 226.384 438.036 225.744 438.036 225.2C438.036 222.96 438.74 221.168 440.148 219.824C441.556 218.48 443.364 217.52 445.572 216.944C448.484 216.368 450.004 215.84 450.132 215.36C450.228 215.008 450.276 214.416 450.276 213.584C450.276 211.888 449.412 211.04 447.684 211.04C446.948 211.04 446.292 211.28 445.716 211.76C445.14 212.208 444.852 212.784 444.852 213.488L445.14 214.64C445.076 215.184 444.5 215.504 443.412 215.6L442.884 215.648C441.924 215.648 441.156 215.408 440.58 214.928C440.036 214.448 439.764 213.808 439.764 213.008C439.764 212.496 439.924 211.936 440.244 211.328C440.596 210.688 441.028 210.176 441.54 209.792C442.052 209.408 442.836 209.072 443.892 208.784C444.98 208.464 446.02 208.304 447.012 208.304C448.004 208.304 448.772 208.336 449.316 208.4C449.86 208.464 450.596 208.624 451.524 208.88C452.484 209.104 453.268 209.552 453.876 210.224C454.516 210.896 454.852 211.616 454.884 212.384C454.948 213.12 454.98 214.192 454.98 215.6ZM473.917 215.6L473.821 221.744C473.821 226 474.285 228.56 475.213 229.424C475.341 229.552 475.405 229.696 475.405 229.856C475.405 230.336 474.365 230.576 472.285 230.576C470.237 230.576 469.149 229.968 469.021 228.752C468.989 228.464 468.973 227.872 468.973 226.976L469.165 219.296C469.165 219.072 469.037 218.96 468.781 218.96C467.245 218.96 465.805 219.392 464.461 220.256C463.117 221.12 462.445 222.224 462.445 223.568C462.445 224.272 462.637 224.864 463.021 225.344C463.405 225.824 463.869 226.064 464.413 226.064C464.989 226.064 465.453 225.952 465.805 225.728C466.189 225.504 466.413 225.376 466.477 225.344C467.021 225.408 467.293 225.984 467.293 227.072C467.293 228.128 466.797 228.992 465.805 229.664C464.813 230.304 463.773 230.624 462.685 230.624C461.597 230.624 460.653 230.432 459.853 230.048C459.085 229.664 458.525 229.232 458.173 228.752C457.821 228.272 457.533 227.728 457.309 227.12C457.085 226.384 456.973 225.744 456.973 225.2C456.973 222.96 457.677 221.168 459.085 219.824C460.493 218.48 462.301 217.52 464.509 216.944C467.421 216.368 468.941 215.84 469.069 215.36C469.165 215.008 469.213 214.416 469.213 213.584C469.213 211.888 468.349 211.04 466.621 211.04C465.885 211.04 465.229 211.28 464.653 211.76C464.077 212.208 463.789 212.784 463.789 213.488L464.077 214.64C464.013 215.184 463.437 215.504 462.349 215.6L461.821 215.648C460.861 215.648 460.093 215.408 459.517 214.928C458.973 214.448 458.701 213.808 458.701 213.008C458.701 212.496 458.861 211.936 459.181 211.328C459.533 210.688 459.965 210.176 460.477 209.792C460.989 209.408 461.773 209.072 462.829 208.784C463.917 208.464 464.957 208.304 465.949 208.304C466.941 208.304 467.709 208.336 468.253 208.4C468.797 208.464 469.533 208.624 470.461 208.88C471.421 209.104 472.205 209.552 472.813 210.224C473.453 210.896 473.789 211.616 473.821 212.384C473.885 213.12 473.917 214.192 473.917 215.6ZM476.823 230.336C477.399 226.88 477.687 222.736 477.687 217.904C477.687 213.072 477.543 209.936 477.255 208.496C477.255 208.08 477.735 207.872 478.695 207.872C480.167 207.872 481.143 208.432 481.623 209.552C481.655 209.648 481.735 209.696 481.863 209.696C481.991 209.696 482.087 209.664 482.151 209.6C483.143 208.576 484.679 208.064 486.759 208.064C488.839 208.064 490.487 208.592 491.703 209.648C492.919 210.704 493.527 212.24 493.527 214.256C493.527 215.472 493.415 217.2 493.191 219.44C492.999 221.68 492.903 223.344 492.903 224.432C492.903 227.024 493.335 228.896 494.199 230.048C494.327 230.208 494.391 230.368 494.391 230.528C494.391 230.944 493.943 231.152 493.047 231.152C489.079 231.152 487.095 229.392 487.095 225.872C487.095 224.528 487.399 222.656 488.007 220.256C488.615 217.856 488.919 216.032 488.919 214.784C488.919 212.224 487.863 210.944 485.751 210.944C484.727 210.944 483.943 211.248 483.399 211.856C482.887 212.464 482.599 213.168 482.535 213.968C482.471 214.736 482.439 216.208 482.439 218.384C482.439 221.712 482.551 224.608 482.775 227.072L482.871 228.128C482.871 229.024 482.279 229.712 481.095 230.192C479.943 230.704 478.935 230.96 478.071 230.96C477.239 230.96 476.823 230.752 476.823 230.336ZM520.652 215.6L520.556 221.744C520.556 226 521.02 228.56 521.948 229.424C522.076 229.552 522.14 229.696 522.14 229.856C522.14 230.336 521.1 230.576 519.02 230.576C516.972 230.576 515.884 229.968 515.756 228.752C515.724 228.464 515.708 227.872 515.708 226.976L515.9 219.296C515.9 219.072 515.772 218.96 515.516 218.96C513.98 218.96 512.54 219.392 511.196 220.256C509.852 221.12 509.18 222.224 509.18 223.568C509.18 224.272 509.372 224.864 509.756 225.344C510.14 225.824 510.604 226.064 511.148 226.064C511.724 226.064 512.188 225.952 512.54 225.728C512.924 225.504 513.148 225.376 513.212 225.344C513.756 225.408 514.028 225.984 514.028 227.072C514.028 228.128 513.532 228.992 512.54 229.664C511.548 230.304 510.508 230.624 509.42 230.624C508.332 230.624 507.388 230.432 506.588 230.048C505.82 229.664 505.26 229.232 504.908 228.752C504.556 228.272 504.268 227.728 504.044 227.12C503.82 226.384 503.708 225.744 503.708 225.2C503.708 222.96 504.412 221.168 505.82 219.824C507.228 218.48 509.036 217.52 511.244 216.944C514.156 216.368 515.676 215.84 515.804 215.36C515.9 215.008 515.948 214.416 515.948 213.584C515.948 211.888 515.084 211.04 513.356 211.04C512.62 211.04 511.964 211.28 511.388 211.76C510.812 212.208 510.524 212.784 510.524 213.488L510.812 214.64C510.748 215.184 510.172 215.504 509.084 215.6L508.556 215.648C507.596 215.648 506.828 215.408 506.252 214.928C505.708 214.448 505.436 213.808 505.436 213.008C505.436 212.496 505.596 211.936 505.916 211.328C506.268 210.688 506.7 210.176 507.212 209.792C507.724 209.408 508.508 209.072 509.564 208.784C510.652 208.464 511.692 208.304 512.684 208.304C513.676 208.304 514.444 208.336 514.988 208.4C515.532 208.464 516.268 208.624 517.196 208.88C518.156 209.104 518.94 209.552 519.548 210.224C520.188 210.896 520.524 211.616 520.556 212.384C520.62 213.12 520.652 214.192 520.652 215.6ZM528.645 204.32L527.493 204.272C526.629 204.272 526.069 204.48 525.813 204.896C525.749 204.992 525.669 205.04 525.573 205.04C525.157 205.04 524.949 204.336 524.949 202.928C524.949 201.488 525.157 200.576 525.573 200.192C526.021 199.808 526.789 199.616 527.877 199.616C528.965 199.616 529.685 199.808 530.037 200.192C530.421 200.544 530.613 201.152 530.613 202.016C530.613 202.88 530.469 203.488 530.181 203.84C529.893 204.16 529.381 204.32 528.645 204.32ZM530.709 208.88C530.421 211.472 530.277 214.512 530.277 218C530.149 222.704 530.085 226.752 530.085 230.144L530.133 233.936C530.133 235.6 529.877 237.136 529.365 238.544C528.885 239.984 528.293 241.152 527.589 242.048C526.917 242.944 525.877 243.728 524.469 244.4C523.093 245.072 521.477 245.408 519.621 245.408C519.045 245.408 518.757 245.2 518.757 244.784C518.757 244.56 519.013 244.336 519.525 244.112C521.765 243.056 523.349 240.688 524.277 237.008C525.237 233.328 525.717 228.848 525.717 223.568C525.717 216.144 525.141 212.08 523.989 211.376C523.669 211.152 523.509 210.96 523.509 210.8C523.509 210.256 524.341 209.712 526.005 209.168C527.669 208.624 528.869 208.352 529.605 208.352C530.341 208.352 530.709 208.528 530.709 208.88ZM549.62 215.6L549.524 221.744C549.524 226 549.988 228.56 550.916 229.424C551.044 229.552 551.108 229.696 551.108 229.856C551.108 230.336 550.068 230.576 547.988 230.576C545.94 230.576 544.852 229.968 544.724 228.752C544.692 228.464 544.676 227.872 544.676 226.976L544.868 219.296C544.868 219.072 544.74 218.96 544.484 218.96C542.948 218.96 541.508 219.392 540.164 220.256C538.82 221.12 538.148 222.224 538.148 223.568C538.148 224.272 538.34 224.864 538.724 225.344C539.108 225.824 539.572 226.064 540.116 226.064C540.692 226.064 541.156 225.952 541.508 225.728C541.892 225.504 542.116 225.376 542.18 225.344C542.724 225.408 542.996 225.984 542.996 227.072C542.996 228.128 542.5 228.992 541.508 229.664C540.516 230.304 539.476 230.624 538.388 230.624C537.3 230.624 536.356 230.432 535.556 230.048C534.788 229.664 534.228 229.232 533.876 228.752C533.524 228.272 533.236 227.728 533.012 227.12C532.788 226.384 532.676 225.744 532.676 225.2C532.676 222.96 533.38 221.168 534.788 219.824C536.196 218.48 538.004 217.52 540.212 216.944C543.124 216.368 544.644 215.84 544.772 215.36C544.868 215.008 544.916 214.416 544.916 213.584C544.916 211.888 544.052 211.04 542.324 211.04C541.588 211.04 540.932 211.28 540.356 211.76C539.78 212.208 539.492 212.784 539.492 213.488L539.78 214.64C539.716 215.184 539.14 215.504 538.052 215.6L537.524 215.648C536.564 215.648 535.796 215.408 535.22 214.928C534.676 214.448 534.404 213.808 534.404 213.008C534.404 212.496 534.564 211.936 534.884 211.328C535.236 210.688 535.668 210.176 536.18 209.792C536.692 209.408 537.476 209.072 538.532 208.784C539.62 208.464 540.66 208.304 541.652 208.304C542.644 208.304 543.412 208.336 543.956 208.4C544.5 208.464 545.236 208.624 546.164 208.88C547.124 209.104 547.908 209.552 548.516 210.224C549.156 210.896 549.492 211.616 549.524 212.384C549.588 213.12 549.62 214.192 549.62 215.6ZM563.134 195.92C563.39 195.952 563.678 196.112 563.998 196.4C564.318 196.688 564.478 197.216 564.478 197.984C564.478 198.72 564.318 199.632 563.998 200.72C563.71 201.776 563.422 202.576 563.134 203.12L562.702 203.984C562.414 204.464 562.206 204.704 562.078 204.704H561.982C561.694 204.704 561.55 204.592 561.55 204.368C561.55 202.192 561.166 200.224 560.398 198.464C560.11 197.856 559.966 197.52 559.966 197.456C559.966 196.976 560.238 196.592 560.782 196.304C561.358 196.016 561.838 195.872 562.222 195.872C562.606 195.84 562.91 195.856 563.134 195.92ZM556.654 195.92C556.91 195.952 557.198 196.112 557.518 196.4C557.838 196.688 557.998 197.216 557.998 197.984C557.998 198.72 557.854 199.632 557.566 200.72C557.278 201.776 556.974 202.576 556.654 203.12L556.222 203.984C555.934 204.464 555.726 204.704 555.598 204.704H555.502C555.214 204.704 555.07 204.592 555.07 204.368C555.07 202.32 554.67 200.352 553.87 198.464C553.614 197.856 553.486 197.52 553.486 197.456C553.486 196.976 553.758 196.592 554.302 196.304C554.878 196.016 555.358 195.872 555.742 195.872C556.126 195.84 556.43 195.856 556.654 195.92Z" fill="white"/>
</svg>
